<svg width="148" height="113" viewBox="0 0 148 113" fill="none" xmlns="http://www.w3.org/2000/svg">
<path d="M11.286 58.8937C72.2962 49.7933 118.537 -1.88239 120.81 -63.5015C121.063 -70.3217 126.48 -75.8173 133.294 -76.1986L161.107 -77.7481C168.821 -78.1777 175.238 -71.9355 175.074 -64.216C174.656 -44.53 171.09 -25.2214 164.42 -6.64333C156.433 15.6118 144.354 35.8678 128.524 53.5587C112.694 71.2496 93.8966 85.4963 72.6576 95.9053C54.9284 104.592 36.127 110.28 16.6028 112.882C8.94491 113.901 2.0259 108.221 1.59623 100.51L0.0461315 72.7068C-0.327327 65.8946 4.53566 59.9013 11.286 58.8937Z" fill="#9AC3FE" fill-opacity="0.13"/>
</svg>
