<svg width="149" height="107" viewBox="0 0 149 107" fill="none" xmlns="http://www.w3.org/2000/svg">
<path d="M-59.3232 37.0849C-5.19803 66.6279 62.8566 53.3054 101.87 5.52658C106.187 0.239838 113.823 -0.880156 119.485 2.93101L142.59 18.4741C148.997 22.7863 150.344 31.632 145.552 37.6938C133.334 53.1458 118.834 66.3972 102.303 77.1913C82.4978 90.1235 60.6453 98.9946 37.3454 103.557C14.0456 108.119 -9.53763 108.143 -32.7482 103.632C-52.1253 99.864 -70.544 93.0645 -87.6789 83.3567C-94.3976 79.5493 -96.4817 70.8459 -92.171 64.4347L-76.6215 41.3225C-72.8087 35.658 -65.3104 33.8144 -59.3232 37.0849Z" fill="#FAF8F5"/>
</svg>
