<svg width="147" height="125" viewBox="0 0 147 125" fill="none" xmlns="http://www.w3.org/2000/svg">
<path d="M50.1644 7.20601C81.6055 60.2511 146.917 83.5598 204.862 62.4119C211.274 60.0722 218.411 63.0096 221.332 69.1785L233.256 94.3428C236.561 101.322 233.201 109.615 225.985 112.379C207.589 119.422 188.353 123.408 168.628 124.243C144.996 125.245 121.678 121.709 99.3169 113.73C76.9555 105.751 56.6688 93.7254 39.0191 77.991C24.2852 64.854 11.9237 49.6003 2.15148 32.502C-1.67976 25.7969 0.974217 17.25 7.95498 13.9402L33.1285 2.01322C39.2998 -0.909022 46.6877 1.33614 50.1644 7.20601Z" fill="#9AC3FE" fill-opacity="0.13"/>
</svg>
