<svg width="163" height="113" viewBox="0 0 163 113" fill="none" xmlns="http://www.w3.org/2000/svg">
<path d="M109.01 103.001C94.0399 43.1805 38.1095 2.18273 -23.4629 5.8879C-30.2775 6.29736 -36.2769 1.44009 -37.313 -5.30389L-41.5495 -32.8257C-42.7261 -40.4609 -37.1323 -47.4457 -29.4262 -48.0318C-9.78549 -49.5251 9.78693 -47.8431 28.9297 -43.01C51.8632 -37.2174 73.1985 -27.1616 92.3453 -13.1277C111.492 0.906193 127.499 18.2278 139.919 38.3513C150.287 55.1511 157.769 73.3036 162.25 92.4798C164.009 100.003 159.022 107.433 151.384 108.609L123.848 112.844C117.102 113.884 110.665 109.621 109.01 103.001Z" fill="#9AC3FE" fill-opacity="0.13"/>
</svg>
